<?xml version="1.0" encoding="utf-8"?>
<!-- Generator: Adobe Illustrator 26.2.1, SVG Export Plug-In . SVG Version: 6.00 Build 0)  -->
<svg version="1.1" id="Layer_1" xmlns="http://www.w3.org/2000/svg" xmlns:xlink="http://www.w3.org/1999/xlink" x="0px" y="0px"
	 viewBox="0 0 36 36" style="enable-background:new 0 0 36 36;" xml:space="preserve">
<style type="text/css">
	.st0{fill:#EFD35E;}
	.st1{fill:#E8E3DD;}
	.st2{fill:#C9C8C7;}
	.st3{fill:#9E9E9E;}
	.st4{fill:#2D2B29;}
	.st5{fill:#3F3E3C;}
	.st6{fill:none;}
	.st7{fill:#3D3B3A;}
	.st8{fill:#383331;}
	.st9{fill:#595453;}
	.st10{fill:#2B2727;}
	.st11{fill:#E2DBD9;}
	.st12{fill:#EDEAE6;}
	.st13{fill:#333130;}
	.st14{fill:#3A3837;}
	.st15{fill:#F2F0ED;}
	.st16{fill:#DBD7D2;}
</style>
<path class="st0" d="M35.5,18.5c0,3.5-1,6.8-2.9,9.7C29.4,32.9,24.1,36,18,36c-5.2,0-9.9-2.3-13.1-5.9c-2.8-3.2-4.4-7.3-4.4-11.6
	c0-7.1,4.3-13.3,10.4-16c0.7-0.3,1.4-0.6,2.2-0.8c0.1,0,0.3-0.1,0.4-0.1l0,0c4.8-1.3,9.9-0.5,14,2.2c0.4,0.3,0.8,0.6,1.2,0.9
	C32.9,7.8,35.5,12.9,35.5,18.5z"/>
<path class="st1" d="M29.6,21.8c-0.2,0.6-0.9,0.9-1.5,0.8c-0.3,0-0.5-0.1-0.7-0.2c-0.4-0.1-0.7-0.3-1-0.5c-2.8-1.3-6.1-1-9.2-1.2
	c-0.3,0-0.7-0.1-1-0.1h0c-2.2-0.3-4.4-0.9-6.6-1.6c-1.4-0.5-2.9-1-4.3-1.5c-0.3-0.1-0.4,0.7-0.7,0.6c-0.3-1.5-0.3-2.2-0.2-2.7
	c0,0,0-0.1,0-0.2c0.1-0.8,0.5-1.8,2.1-4.2c0.3-0.5,0.6-0.9,1-1.3c0.1,0,0.2,0,0.3,0c0.7,0.1,1.4,0.5,2.1,0.8c0,0,0,0,0,0
	c0.2,0.1,0.4,0.3,0.7,0.5c0.3,0.2,0.7,0.5,1,0.8c0.2,0.1,0.4,0.3,0.6,0.4c0,0,0,0,0.1,0c1,0.7,2,1.3,3.2,1.4
	c1.5,0.1,2.9-0.6,4.3-1.2c1.4-0.6,2.9-1.1,4.3-0.6c1.6,0.6,2.4,2.2,3.1,3.7c0.5,1,0.9,2,1.4,3c0.3,0.7,0.6,1.3,0.9,2
	C29.5,20.9,29.7,21.4,29.6,21.8z"/>
<path class="st2" d="M32.6,28.2C29.4,32.9,24.1,36,18,36c-5.2,0-9.9-2.3-13.1-5.9l0.7-3.4l0.2-0.9c0,0,0,0,0-0.1c0,0,0,0,0,0
	c0.1-0.3,0.2-1.2,0.3-1.1c0.3-0.7,0.3-1.5,0.1-2.3c0,0,0-0.1,0-0.1c0,0,0-0.1,0-0.1v0c-0.3-1-0.9-1.9-1.3-2.9c0-0.1-0.1-0.2-0.1-0.3
	c0,0,0,0,0,0c0-0.1-0.1-0.2-0.1-0.3c0,0,0,0,0,0c0-0.1-0.1-0.2-0.1-0.3c0,0,0,0,0-0.1c0,0,0,0,0,0c0-0.1,0-0.2-0.1-0.3c0,0,0,0,0,0
	c0.1-0.6,0.4-1.2,0.8-1.6c0.6-0.7,1.4-1.1,2.3-1.2C8,15,8.4,15,8.7,15.1c0,0,0,0,0,0l0,0c0.1,0,0.1,0,0.2,0l0,0
	c0.4,0.1,0.8,0.2,1.2,0.3l0,0c0.5,0.2,1,0.4,1.5,0.6c0.3,0.1,0.6,0.2,0.8,0.4v0l0,0c0.9,0.4,1.9,0.9,2.8,1.4c2.1,1,4.4,1.9,6.8,1.6
	c1.4-0.2,2.8-0.8,4.2-1c0.2,0,0.4,0,0.7-0.1c0.5,0,1,0,1.5,0.1c0.7,0.1,1.4,0.3,2.1,0.6c0,0,0.1,0,0.1,0.1l1.4,6.3l0.2,1L32.6,28.2z
	"/>
<path class="st3" d="M18.7,27.5c-0.2,0.7-0.8,1.3-1.3,1.8c-0.9,0.9-1.8,1.8-2.8,2.5s-2.3,1.1-3.6,1c-1.1-0.1-2-0.6-2.7-1.4
	c-1.1-1.3-1.4-3.2-2.4-4.6c-0.1-0.1-0.1-0.2-0.2-0.3l0.2-0.9c0,0,0,0,0-0.1c0.1-0.3,0.2-1.2,0.3-1.2c0.3-0.7,0.3-1.5,0.1-2.3
	c0,0,0-0.1,0-0.1c0,0,0-0.1-0.1-0.1c0,0,0,0,0,0v0c0.2,0.3,0.4,0.7,0.6,1c0.2,0.3,0.4,0.6,0.6,0.8c1,1,2.4,1.6,3.8,1.8
	c1.8,0.2,3.6-0.1,5.4-0.3c0.5-0.1,1.1-0.1,1.5,0.1C18.8,25.9,19,26.8,18.7,27.5z"/>
<path class="st4" d="M32.2,26.5c-0.7,0.1-1.4-0.1-2-0.4c-1.2-0.7-2.1-1.7-2.6-3c-0.1-0.2-0.2-0.4-0.2-0.7C27,21.3,27,20.2,26.9,19
	c0-0.2,0-0.4-0.1-0.7c-0.1-1.1-0.3-2.3-0.9-3.3c-0.7-1.2-2-2.1-3.4-1.8c-1.2,0.2-2,1.2-2.9,2c-0.9,0.8-2,1.6-3.2,1.3
	c-1.6-0.5-2.2-2.8-3.9-2.9c-0.8-0.1-1.6,0.4-2.3,0.3c-0.1,0-0.1,0-0.2,0c-1.1-0.4-1.2-1.8-2-2.6c-0.5-0.4-1.1-0.5-1.7-0.4
	c0.3-0.5,0.6-0.9,1-1.3c0.1-0.1,0.2-0.2,0.3-0.3c0.6-0.7,1.2-1.3,1.9-1.8c0.3-0.2,0.6-0.5,1-0.7c0,0,0,0,0,0
	c0.2-1.7,0.2-3.6,0.4-5.4c0-0.1,0-0.3,0-0.4c0-0.2,0.1-0.5,0.2-0.7c0-0.1,0.1-0.1,0.1-0.1C11.4,0,11.5,0,11.6,0h0c0,0,0.1,0,0.1,0
	c0,0,0.1,0,0.1,0c0.2,0.1,0.4,0.4,0.6,0.4c0.7,0.6,1.3,1.3,1.9,2c0.2,0.2,0.3,0.3,0.5,0.5c0.5,0.5,0.9,1.1,1.3,1.6
	c0.1,0,0.2,0,0.4,0c0.1,0,0.2,0,0.3,0l0.3,0c0.1,0,0.2,0,0.3,0c0.4,0,0.8,0.1,1.3,0.1c0.2,0,0.4,0.1,0.6,0.1c0.2,0,0.3,0,0.5,0.1
	c0.1,0,0.2,0,0.3,0c0,0,0.1,0,0.1,0c0.1,0,0.3,0,0.4,0.1c0.2,0,0.4,0.1,0.6,0.1c0.1,0,0.3,0.1,0.5,0.1c0.3,0.1,0.5,0.1,0.8,0.2
	c1.1-1,2.1-2.2,3.1-3.2c0.4-0.4,0.9-0.8,1.5-0.8c0,0,0.1,0,0.1,0c0,0,0.1,0,0.1,0s0.1,0,0.1,0c0,0,0.1,0,0.1,0c0,0,0.1,0,0.1,0
	c0,0,0,0,0,0c0,0,0.1,0.1,0.1,0.1c0,0,0,0,0,0c0,0,0,0,0.1,0.1c0,0,0.1,0,0.1,0.1c0,0,0,0,0,0c0,0,0,0,0.1,0.1c0,0,0,0,0.1,0.1
	c0,0,0,0,0,0c0,0,0,0.1,0.1,0.1c0,0,0,0.1,0.1,0.1c0.2,0.4,0.3,0.8,0.4,1.2c0.4,2,0.6,3.7,0.3,7.2l1.9,8.6l1.4,6.3L32.2,26.5z"/>
<path class="st5" d="M13.7,5.2c0.3-1.9-0.6-4-2.1-5.2c0,0,0.1,0,0.1,0c0.2,0.1,0.4,0.4,0.6,0.4c1.3,1.3,2.5,2.6,3.7,4.1
	C15.3,4.8,14.5,5,13.7,5.2z"/>
<path class="st5" d="M32,25.5c-1-3-1.7-10.2-4.9-15.5c-0.8-1.3-1.5-2-1.9-2.3c-0.2-0.2-0.3-0.3-0.3-0.3c0-0.3,0.6-0.3,0.8-0.2
	c0.3,0.1,0.6,0.2,0.9,0.2c0.4-0.1,0.7-0.3,0.8-0.7c0,0,0,0,0,0c0.1-0.3,0.2-0.7,0.2-1.1c0-1.4-0.1-2.7-0.4-4c0,0,0.1,0,0.1,0
	c0,0,0.1,0,0.1,0c0,0,0.1,0,0.1,0c0,0,0.1,0,0.1,0c0,0,0.1,0,0.1,0c0,0,0,0,0,0c0,0,0.1,0.1,0.1,0.1c0,0,0,0,0,0c0,0,0,0,0.1,0.1
	c0,0,0.1,0,0.1,0.1c0,0,0,0,0,0c0,0,0,0,0.1,0.1c0,0,0,0,0.1,0.1c0,0,0,0,0,0c0,0,0,0.1,0.1,0.1c0,0,0,0.1,0.1,0.1
	c0.2,0.4,0.3,0.8,0.4,1.2c0.4,2,0.6,3.7,0.3,7.2l1.9,8.6L32,25.5z"/>
<path class="st6" d="M32.6,28.2C29.4,32.9,24.1,36,18,36c-5.2,0-9.9-2.3-13.1-5.9l0.7-3.4l0.2-0.9c0,0,0,0,0-0.1c0,0,0,0,0,0
	c0.1-0.3,0.2-1.1,0.3-1.1c0.3-0.7,0.3-1.5,0.1-2.3c0,0,0-0.1,0-0.1c0,0,0-0.1,0-0.1v0c-0.3-1-0.9-1.9-1.3-2.9c0-0.1-0.1-0.2-0.1-0.3
	c0,0,0,0,0,0c0-0.1-0.1-0.2-0.1-0.3c0,0,0,0,0,0c0-0.1-0.1-0.2-0.1-0.3c0,0,0,0,0-0.1c0,0,0,0,0,0c0-0.1,0-0.2-0.1-0.3c0,0,0,0,0,0
	c0,0,0-0.1,0-0.1c0,0,0,0,0,0c0,0,0,0,0,0c0-0.2-0.1-0.3-0.1-0.5c0-0.1,0-0.1,0-0.2c0-0.1,0-0.3,0-0.4v0c0-0.6,0-1.2,0.2-1.7
	c0,0,0,0,0,0c0.1-0.3,0.2-0.6,0.3-0.9c0.3-0.8,0.8-1.8,1.7-3c0.3-0.4,0.6-0.8,0.9-1.2l0.1-0.1c0,0,0-0.1,0.1-0.1
	c0.1-0.1,0.2-0.2,0.3-0.3c0.6-0.7,1.2-1.3,1.9-1.8c0.3-0.2,0.6-0.5,1-0.7c0,0,0,0,0,0c0.2-1.4,0.2-2.8,0.3-4.2
	c0-0.4,0.1-0.8,0.1-1.2c0-0.1,0-0.3,0-0.4c0-0.2,0.1-0.5,0.2-0.7c0-0.1,0.1-0.1,0.1-0.1c0,0,0.1,0,0.1-0.1c0.1,0,0.2,0,0.2,0
	c0,0,0.1,0,0.1,0c0.2,0.1,0.4,0.2,0.5,0.4c0,0,0.1,0.1,0.1,0.1c0.4,0.4,0.7,0.7,1.1,1.1c0.2,0.2,0.4,0.4,0.6,0.6
	c0.1,0.1,0.2,0.2,0.2,0.3c0.1,0.1,0.1,0.2,0.2,0.2l0,0c0.1,0.1,0.1,0.2,0.2,0.2l0,0c0.1,0.1,0.2,0.2,0.3,0.3
	c0.1,0.1,0.1,0.1,0.2,0.2c0,0,0,0,0,0c0.1,0.1,0.1,0.1,0.2,0.2c0,0,0,0,0.1,0.1c0.1,0.1,0.1,0.2,0.2,0.2c0.1,0.1,0.1,0.2,0.2,0.3
	l0,0c0.1,0.1,0.1,0.2,0.2,0.3c0,0,0,0,0,0l0,0c0.1,0,0.2,0,0.4,0c0.1,0,0.2,0,0.3,0l0.3,0c0.1,0,0.2,0,0.3,0c0.4,0,0.8,0.1,1.3,0.1
	c0.2,0,0.4,0.1,0.6,0.1c0.2,0,0.3,0,0.5,0.1c0.1,0,0.2,0,0.3,0c0,0,0.1,0,0.1,0c0.1,0,0.3,0,0.4,0.1c0.2,0,0.4,0.1,0.6,0.1
	c0.1,0,0.3,0.1,0.5,0.1c0.3,0.1,0.5,0.1,0.8,0.2c0.9-0.9,1.9-1.9,2.8-2.9c0.1-0.1,0.2-0.2,0.3-0.3c0.4-0.4,0.9-0.8,1.5-0.8
	c0,0,0.1,0,0.1,0c0,0,0.1,0,0.1,0s0.1,0,0.1,0c0,0,0.1,0,0.1,0c0,0,0.1,0,0.1,0c0,0,0,0,0,0c0,0,0.1,0.1,0.1,0.1c0,0,0,0,0,0
	c0,0,0,0,0.1,0.1c0,0,0.1,0,0.1,0.1c0,0,0,0,0,0c0,0,0,0,0.1,0.1c0,0,0,0,0.1,0.1c0,0,0,0,0,0c0,0,0,0.1,0.1,0.1c0,0,0,0.1,0.1,0.1
	c0.2,0.4,0.3,0.8,0.4,1.2c0.1,0.4,0.2,0.9,0.2,1.3c0.2,1.6,0.3,3.2,0,5.9l1.9,8.6l1.4,6.3l0.2,1L32.6,28.2z"/>
<path class="st7" d="M7.9,16.5c-0.1,0-0.2-0.1-0.2-0.2c-0.2-0.7,0.8-1.3,1.9-2.2c1.5-1.1,3.1-2.3,2.4-3.4c-0.2-0.3-0.6-0.5-1.1-0.5
	c-0.6,0-1.2,0.4-1.5,0.9c-0.1,0.1-0.2,0.1-0.3,0.1C9,11.1,9,11,9,10.9l0,0c0.4-0.6,1.1-1.1,1.8-1.1c0.6,0,1.1,0.2,1.4,0.7
	c0.4,0.6,0.3,1.4-0.3,2.1c-0.5,0.6-1.3,1.3-2.1,1.8C9,15.1,8,15.9,8.1,16.3C8.1,16.4,8,16.5,7.9,16.5C7.9,16.5,7.9,16.5,7.9,16.5z"
	/>
<path class="st7" d="M13.6,21.3c-0.2,0-0.4,0-0.5,0c-1.1-0.1-2.3-0.6-3.4-1.6C9,20.2,8,20.3,7.3,19.8c-0.1-0.1-0.1-0.2-0.1-0.3
	c0.1-0.1,0.2-0.1,0.3-0.1c0.6,0.4,1.5,0.3,2-0.2c0.1-0.1,0.2-0.1,0.3,0c1.1,1,2.2,1.5,3.3,1.6c1.3,0.1,2.6-0.2,3.7-0.8
	c0.1-0.1,0.2,0,0.3,0.1c0.1,0.1,0,0.2-0.1,0.3c0,0,0,0,0,0C15.9,21,14.8,21.3,13.6,21.3z"/>
<path class="st7" d="M9.6,19.7c-0.1,0-0.2-0.1-0.2-0.1c-0.2-0.7-0.2-1.4-0.1-2.1c0-0.1,0.1-0.2,0.2-0.1c0.1,0,0.2,0.1,0.1,0.2
	c-0.1,0.6-0.1,1.3,0.1,1.9C9.9,19.5,9.8,19.6,9.6,19.7C9.7,19.7,9.7,19.7,9.6,19.7C9.7,19.7,9.7,19.7,9.6,19.7z"/>
<path class="st8" d="M12.2,17c-0.3,0.4-0.6,0.9-1,1.2c-0.3,0.2-0.6,0.5-0.9,0.6c-0.3,0.1-0.6,0.2-1,0.1c-0.5-0.1-0.9-0.5-1.1-1
	c-0.2-0.4-0.4-0.8-0.4-1.2v0C7.7,15.4,9,14.9,10.1,15c0.7,0,1.3,0.3,1.8,0.7c0,0,0.1,0.1,0.1,0.1c0,0,0,0,0,0
	C12.5,16.1,12.5,16.5,12.2,17z"/>
<path class="st9" d="M12.1,15.7c-0.9-0.2-1.7-0.4-2.6-0.2c-0.7,0.1-1.3,0.6-1.7,1.1v0C7.7,15.4,9,14.9,10.1,15
	c0.7,0,1.3,0.3,1.8,0.7C12,15.7,12,15.7,12.1,15.7C12.1,15.7,12.1,15.7,12.1,15.7z"/>
<path class="st10" d="M12.2,17c-0.3,0.4-0.6,0.9-1,1.2c-0.3,0.2-0.6,0.5-0.9,0.6c-0.3,0.1-0.6,0.2-1,0.1c-0.5-0.1-0.9-0.5-1.1-1
	C8.5,18,8.9,18.1,9.4,18c0.7-0.1,1.4-0.6,1.8-1.3c0.2-0.4,0.4-0.8,0.8-1.1c0,0,0,0,0,0c0,0,0.1,0.1,0.1,0.1
	C12.5,16.1,12.5,16.5,12.2,17z"/>
<path class="st7" d="M11,22.6c-0.3,0-0.5,0-0.8-0.1c-0.8-0.2-1.5-0.7-2-1.4c-0.1-0.1,0-0.2,0.1-0.3c0.1-0.1,0.2,0,0.3,0.1
	c0,0,0,0,0,0c0.8,1.3,2.6,1.7,3.9,0.9c0.1-0.1,0.2,0,0.3,0.1c0.1,0.1,0,0.2-0.1,0.3C12.1,22.5,11.6,22.6,11,22.6z"/>
<path class="st11" d="M26.6,8.9c0.1,0.1,0.3,0.1,0.4,0c0.1,0,0.1-0.1,0.1-0.2c0.1-0.8,0.2-1.6,0.2-2.4c0-0.4,0-0.8-0.1-1.2
	c-0.1-0.6-0.8-0.8-1.2-0.3C26,5,25.9,5.1,25.8,5.1c-0.2,0.3-0.5,0.5-0.8,0.8c-0.2,0.2-0.7,0.3-0.9,0.5c-0.5,0.6,0.7,1,1.1,1.3
	C25.7,8.1,26.2,8.5,26.6,8.9z"/>
<path class="st7" d="M28.8,10.8c-0.2-0.7-0.6-1.2-1.2-1.6l0,0C28.2,9.5,28.6,10.1,28.8,10.8L28.8,10.8z"/>
<path class="st7" d="M13.2,5.6L13.2,5.6c0.9-0.6,2-0.9,3.1-1l0,0C15.2,4.7,14.1,5,13.2,5.6z"/>
<path class="st12" d="M20.9,12.9c-0.4,0.7-1.2,1.2-2.1,1.4c-0.4,0.1-0.8,0.1-1.1,0c-0.3-0.1-0.6-0.1-0.8-0.3
	c-0.2-0.2-0.4-0.5-0.3-0.7c0.3-0.9,1.1-1.6,2-1.7c0.1,0,0.3,0,0.4,0C19.8,11.7,20.5,12.2,20.9,12.9z"/>
<path class="st13" d="M20.9,12.9c-0.4,0.7-1.2,1.2-2.1,1.4c-0.7-0.4-1-1.3-0.6-2c0.2-0.3,0.5-0.6,0.8-0.7
	C19.8,11.7,20.5,12.2,20.9,12.9z"/>
<path class="st14" d="M18.2,14.5c-0.2,0-0.4,0-0.6,0c-0.3-0.1-0.6-0.2-0.8-0.3c-0.3-0.2-0.5-0.5-0.4-0.8c0.3-0.9,1.2-1.7,2.1-1.7
	c1-0.1,2,0.5,2.4,1.4l0,0l0,0C20.4,13.9,19.3,14.5,18.2,14.5z M18.8,11.7c-0.1,0-0.1,0-0.2,0c-0.9,0.1-1.7,0.8-2,1.6
	c-0.1,0.2,0.1,0.5,0.3,0.6c0.2,0.1,0.4,0.2,0.7,0.3c1.2,0.2,2.5-0.3,3.1-1.3C20.4,12.2,19.6,11.7,18.8,11.7L18.8,11.7z"/>
<path class="st15" d="M19.2,12.2c0-0.2,0.1-0.3,0.3-0.3s0.3,0.1,0.3,0.3c0,0.2-0.1,0.3-0.3,0.3S19.2,12.3,19.2,12.2z"/>
<path class="st12" d="M11.6,12.4c-0.1,0-0.2,0.1-0.2,0.1c-0.3,0.1-0.7,0.1-1,0.1c0,0,0,0-0.1,0c-0.5-0.1-0.9-0.4-1.2-0.7
	c-0.3-0.3-0.2-0.8,0-1c0.4-0.5,1-0.8,1.6-0.8c0.2,0,0.5,0.1,0.7,0.1c0.4,0.2,0.7,0.5,0.8,0.9C12.3,11.7,12.1,12.2,11.6,12.4z"/>
<path class="st13" d="M11.6,12.4c-0.1,0-0.2,0.1-0.2,0.1c-0.3,0.1-0.7,0.1-1,0.1c0,0,0,0-0.1,0c-0.4-0.7-0.2-1.7,0.6-2.2
	c0.2-0.1,0.4-0.2,0.6-0.2c0.4,0.2,0.7,0.5,0.8,0.9C12.3,11.7,12.1,12.2,11.6,12.4z"/>
<path class="st14" d="M10.8,12.8c-0.1,0-0.2,0-0.4,0c-0.5-0.1-1-0.4-1.3-0.8c-0.3-0.3-0.3-0.8,0-1.2c0.5-0.5,1.1-0.8,1.7-0.8
	c0.7,0,1.4,0.4,1.5,1.2c0.1,0.5-0.2,1.1-0.7,1.4c-0.1,0-0.2,0.1-0.3,0.1l0,0C11.2,12.7,11,12.8,10.8,12.8z M10.8,10.2
	c-0.5,0-1.1,0.3-1.5,0.7c-0.2,0.3-0.2,0.6,0,0.9c0.3,0.4,0.7,0.6,1.2,0.7c0.3,0.1,0.6,0,0.9-0.1l0,0c0.1,0,0.2-0.1,0.2-0.1
	c0.4-0.2,0.6-0.7,0.6-1.2C12.1,10.6,11.4,10.2,10.8,10.2L10.8,10.2z"/>
<path class="st15" d="M11.3,10.9c0-0.2,0.1-0.3,0.3-0.3c0.2,0,0.3,0.1,0.3,0.3s-0.1,0.3-0.3,0.3C11.4,11.2,11.3,11,11.3,10.9z"/>
<path class="st16" d="M10.9,9.3c-0.4-0.1-0.8-0.3-0.8-0.7c-0.1-0.3,0.2-0.7,0.5-0.8s0.7,0,1,0.1c0.4,0.2,0.8,0.4,1.1,0.7
	c0.1,0.1,0.2,0.2,0.2,0.3C13.1,9.7,11.3,9.4,10.9,9.3z"/>
<path class="st16" d="M19.4,10.9c0.4,0,0.8,0,1.1-0.2c0.3-0.2,0.6-0.6,0.4-1c-0.1-0.2-0.3-0.3-0.5-0.4s-0.5-0.1-0.7,0
	c-0.6,0-1.3,0.2-1.9,0.3c-0.6,0.2-0.9,0.6-0.3,0.9C18.1,10.9,18.8,10.9,19.4,10.9z"/>
</svg>
