<?xml version="1.0" encoding="utf-8"?>
<!-- Generator: Adobe Illustrator 26.2.1, SVG Export Plug-In . SVG Version: 6.00 Build 0)  -->
<svg version="1.1" id="Layer_1" xmlns="http://www.w3.org/2000/svg" xmlns:xlink="http://www.w3.org/1999/xlink" x="0px" y="0px"
	 viewBox="0 0 32 32" style="enable-background:new 0 0 32 32;" xml:space="preserve">
<style type="text/css">
	.st0{fill:#EFD35E;}
	.st1{fill:#E8E3DD;}
	.st2{fill:#C9C8C7;}
	.st3{fill:#9E9E9E;}
	.st4{fill:#2D2B29;}
	.st5{fill:#3F3E3C;}
	.st6{fill:none;}
	.st7{fill:#3D3B3A;}
	.st8{fill:#383331;}
	.st9{fill:#595453;}
	.st10{fill:#2B2727;}
	.st11{fill:#E2DBD9;}
	.st12{fill:#EDEAE6;}
	.st13{fill:#333130;}
	.st14{fill:#3A3837;}
	.st15{fill:#F2F0ED;}
	.st16{fill:#DBD7D2;}
</style>
<path class="st0" d="M31.6,16.4c0,3.1-0.9,6.1-2.6,8.6c-2.8,4.2-7.6,6.9-13,6.9c-4.6,0-8.8-2-11.6-5.2c-2.5-2.8-3.9-6.5-3.9-10.3
	c0-6.3,3.8-11.8,9.2-14.2c0.6-0.3,1.3-0.5,2-0.7c0.1,0,0.3-0.1,0.4-0.1l0,0c4.2-1.1,8.8-0.4,12.4,2c0.4,0.2,0.7,0.5,1.1,0.8
	C29.2,7,31.6,11.4,31.6,16.4z"/>
<path class="st1" d="M26.3,19.4c-0.2,0.5-0.8,0.8-1.4,0.7c-0.2,0-0.4-0.1-0.7-0.2c-0.3-0.1-0.6-0.3-0.9-0.4
	c-2.5-1.2-5.4-0.8-8.2-1.1c-0.3,0-0.6-0.1-0.9-0.1h0c-2-0.3-3.9-0.8-5.9-1.4c-1.3-0.4-2.5-0.9-3.8-1.4c-0.3-0.1-0.4,0.7-0.6,0.5
	c-0.2-1.4-0.2-1.9-0.2-2.4c0,0,0-0.1,0-0.2c0.1-0.7,0.4-1.6,1.8-3.8C6,9.2,6.3,8.8,6.6,8.5c0.1,0,0.2,0,0.2,0
	c0.7,0.1,1.3,0.4,1.8,0.8c0,0,0,0,0,0c0.2,0.1,0.4,0.3,0.6,0.4c0.3,0.2,0.6,0.5,0.9,0.7c0.2,0.1,0.3,0.3,0.5,0.4c0,0,0,0,0.1,0
	c0.9,0.6,1.8,1.2,2.8,1.2c1.3,0.1,2.6-0.5,3.8-1.1c1.2-0.5,2.6-1,3.8-0.5c1.4,0.5,2.1,2,2.8,3.3c0.4,0.9,0.8,1.8,1.3,2.7
	c0.3,0.6,0.6,1.2,0.8,1.8C26.2,18.6,26.4,19,26.3,19.4z"/>
<path class="st2" d="M29,25.1c-2.8,4.2-7.6,6.9-13,6.9c-4.6,0-8.8-2-11.6-5.2l0.6-3l0.2-0.8c0,0,0,0,0-0.1c0,0,0,0,0,0
	c0.1-0.3,0.2-1,0.2-1c0.3-0.6,0.3-1.4,0.1-2c0,0,0-0.1,0-0.1c0,0,0-0.1,0-0.1v0c-0.3-0.9-0.8-1.7-1.2-2.6c0-0.1-0.1-0.2-0.1-0.3
	c0,0,0,0,0,0c0-0.1-0.1-0.2-0.1-0.3c0,0,0,0,0,0c0-0.1-0.1-0.2-0.1-0.3c0,0,0,0,0,0c0,0,0,0,0,0C4,16,4,15.9,4,15.8c0,0,0,0,0,0
	c0.1-0.5,0.4-1,0.7-1.4c0.5-0.6,1.3-1,2.1-1.1c0.3,0,0.6,0,0.9,0.1c0,0,0,0,0,0l0,0c0,0,0.1,0,0.1,0l0,0c0.4,0.1,0.7,0.2,1,0.3l0,0
	c0.5,0.1,0.9,0.3,1.3,0.5c0.2,0.1,0.5,0.2,0.7,0.3v0l0,0c0.8,0.4,1.7,0.8,2.5,1.2c1.9,0.9,4,1.7,6,1.4c1.3-0.2,2.5-0.7,3.7-0.9
	c0.2,0,0.4,0,0.6,0c0.5,0,0.9,0,1.4,0.1c0.6,0.1,1.3,0.3,1.9,0.6c0,0,0.1,0,0.1,0.1l1.2,5.6l0.2,0.9L29,25.1z"/>
<path class="st3" d="M16.7,24.5c-0.2,0.6-0.7,1.2-1.2,1.6c-0.8,0.8-1.6,1.6-2.5,2.2c-0.9,0.6-2.1,1-3.2,0.9C8.8,29.2,8,28.7,7.3,28
	c-1-1.1-1.3-2.8-2.1-4.1c-0.1-0.1-0.1-0.2-0.2-0.2l0.2-0.8c0,0,0,0,0-0.1c0-0.2,0.2-1.1,0.2-1c0.3-0.6,0.3-1.4,0.1-2
	c0,0,0-0.1,0-0.1c0,0,0-0.1,0-0.1c0,0,0,0,0,0v0c0.2,0.3,0.3,0.6,0.5,0.9c0.2,0.3,0.3,0.5,0.6,0.8c0.9,0.9,2.1,1.4,3.4,1.6
	c1.6,0.2,3.2-0.1,4.8-0.3c0.5-0.1,1-0.1,1.4,0.1C16.7,23,16.9,23.8,16.7,24.5z"/>
<path class="st4" d="M28.6,23.5c-0.6,0.1-1.3-0.1-1.8-0.4c-1.1-0.6-1.9-1.5-2.3-2.7c-0.1-0.2-0.1-0.4-0.2-0.6c-0.3-1-0.3-2-0.4-3
	c0-0.2,0-0.4,0-0.6c-0.1-1-0.3-2-0.8-2.9c-0.6-1.1-1.8-1.9-3-1.6c-1,0.2-1.8,1.1-2.6,1.8c-0.8,0.7-1.8,1.4-2.8,1.1
	c-1.4-0.4-2-2.5-3.4-2.6c-0.7-0.1-1.4,0.4-2.1,0.2c-0.1,0-0.1,0-0.1,0C8.1,12,8,10.6,7.2,10c-0.4-0.4-1-0.4-1.5-0.3
	C6,9.2,6.3,8.8,6.6,8.5c0.1-0.1,0.2-0.2,0.2-0.3C7.3,7.6,7.9,7,8.5,6.5C8.8,6.3,9.1,6.1,9.4,6c0,0,0,0,0,0c0.2-1.6,0.2-3.2,0.4-4.8
	c0-0.1,0-0.2,0-0.4c0-0.2,0.1-0.4,0.2-0.6c0,0,0.1-0.1,0.1-0.1C10.1,0,10.2,0,10.3,0h0c0,0,0.1,0,0.1,0c0,0,0.1,0,0.1,0
	c0.2,0.1,0.3,0.3,0.5,0.4c0.6,0.6,1.2,1.2,1.7,1.8c0.1,0.2,0.3,0.3,0.4,0.5c0.4,0.5,0.8,0.9,1.2,1.4c0.1,0,0.2,0,0.3,0
	c0.1,0,0.2,0,0.3,0l0.3,0c0.1,0,0.2,0,0.3,0c0.4,0,0.7,0.1,1.1,0.1c0.2,0,0.4,0,0.6,0.1c0.1,0,0.3,0,0.4,0.1c0.1,0,0.2,0,0.2,0
	c0,0,0.1,0,0.1,0c0.1,0,0.2,0,0.4,0.1c0.2,0,0.4,0.1,0.6,0.1c0.1,0,0.3,0.1,0.4,0.1c0.2,0,0.5,0.1,0.7,0.1c0.9-0.9,1.9-1.9,2.8-2.8
	c0.4-0.4,0.8-0.8,1.3-0.7c0,0,0.1,0,0.1,0c0,0,0.1,0,0.1,0c0,0,0,0,0.1,0c0,0,0.1,0,0.1,0c0,0,0,0,0.1,0c0,0,0,0,0,0
	c0,0,0.1,0,0.1,0.1c0,0,0,0,0,0c0,0,0,0,0.1,0.1c0,0,0,0,0.1,0.1c0,0,0,0,0,0c0,0,0,0,0,0.1c0,0,0,0,0,0.1c0,0,0,0,0,0
	c0,0,0,0.1,0.1,0.1c0,0,0,0.1,0.1,0.1c0.2,0.3,0.3,0.7,0.3,1c0.3,1.8,0.6,3.3,0.2,6.4l1.7,7.7l1.2,5.6L28.6,23.5z"/>
<path class="st5" d="M12.2,4.7c0.2-1.7-0.5-3.6-1.9-4.7c0,0,0.1,0,0.1,0c0.2,0.1,0.3,0.3,0.5,0.4c1.2,1.1,2.3,2.3,3.3,3.6
	C13.6,4.3,12.9,4.5,12.2,4.7z"/>
<path class="st5" d="M28.4,22.7c-0.9-2.7-1.5-9.1-4.4-13.8c-0.7-1.1-1.4-1.7-1.7-2.1C22.2,6.6,22,6.5,22,6.5c0-0.3,0.5-0.2,0.7-0.2
	c0.3,0.1,0.5,0.2,0.8,0.2c0.3,0,0.6-0.3,0.7-0.6c0,0,0,0,0,0c0.1-0.3,0.2-0.6,0.2-1c0-1.2-0.1-2.4-0.4-3.6c0,0,0.1,0,0.1,0
	c0,0,0.1,0,0.1,0c0,0,0,0,0.1,0c0,0,0.1,0,0.1,0c0,0,0,0,0.1,0c0,0,0,0,0,0c0,0,0.1,0,0.1,0.1c0,0,0,0,0,0c0,0,0,0,0.1,0.1
	c0,0,0,0,0.1,0.1c0,0,0,0,0,0c0,0,0,0,0,0.1c0,0,0,0,0,0.1c0,0,0,0,0,0c0,0,0,0.1,0.1,0.1c0,0,0,0.1,0.1,0.1c0.2,0.3,0.3,0.7,0.3,1
	c0.3,1.8,0.6,3.3,0.2,6.4l1.7,7.7L28.4,22.7z"/>
<path class="st6" d="M29,25.1c-2.8,4.2-7.6,6.9-13,6.9c-4.6,0-8.8-2-11.6-5.2l0.6-3l0.2-0.8c0,0,0,0,0-0.1c0,0,0,0,0,0
	c0.1-0.2,0.2-0.9,0.2-1c0.3-0.6,0.3-1.4,0.1-2c0,0,0-0.1,0-0.1c0,0,0-0.1,0-0.1v0c-0.3-0.9-0.8-1.7-1.2-2.6c0-0.1-0.1-0.2-0.1-0.3
	c0,0,0,0,0,0c0-0.1-0.1-0.2-0.1-0.3c0,0,0,0,0,0c0-0.1-0.1-0.2-0.1-0.3c0,0,0,0,0,0c0,0,0,0,0,0C4,16,4,15.9,4,15.8c0,0,0,0,0,0
	c0,0,0-0.1,0-0.1c0,0,0,0,0,0c0,0,0,0,0,0c0-0.1-0.1-0.3-0.1-0.4c0-0.1,0-0.1,0-0.2c0-0.1,0-0.3,0-0.4v0c0-0.5,0-1,0.1-1.5
	c0,0,0,0,0,0c0.1-0.3,0.1-0.5,0.2-0.8c0.3-0.7,0.7-1.6,1.5-2.7C6,9.3,6.2,9,6.5,8.6l0.1-0.1c0,0,0,0,0.1-0.1
	c0.1-0.1,0.2-0.2,0.2-0.3C7.3,7.6,7.9,7,8.5,6.5C8.8,6.3,9.1,6.1,9.4,6c0,0,0,0,0,0c0.1-1.2,0.2-2.5,0.3-3.7c0-0.4,0.1-0.7,0.1-1.1
	c0-0.1,0-0.2,0-0.4c0-0.2,0.1-0.4,0.2-0.6c0,0,0.1-0.1,0.1-0.1c0,0,0.1,0,0.1,0c0.1,0,0.1,0,0.2,0c0,0,0.1,0,0.1,0
	c0.2,0.1,0.3,0.2,0.5,0.3c0,0,0,0,0.1,0.1c0.3,0.3,0.6,0.6,1,1c0.2,0.2,0.4,0.4,0.5,0.6c0.1,0.1,0.1,0.2,0.2,0.2
	c0.1,0.1,0.1,0.1,0.2,0.2l0,0c0.1,0.1,0.1,0.1,0.2,0.2l0,0c0.1,0.1,0.2,0.2,0.2,0.3C13.4,3,13.5,3,13.5,3.1c0,0,0,0,0,0
	c0.1,0.1,0.1,0.1,0.2,0.2c0,0,0,0,0,0.1c0.1,0.1,0.1,0.1,0.2,0.2C14,3.7,14,3.7,14.1,3.8l0,0C14.2,3.9,14.2,4,14.3,4c0,0,0,0,0,0
	l0,0c0.1,0,0.2,0,0.3,0c0.1,0,0.2,0,0.3,0l0.3,0c0.1,0,0.2,0,0.3,0c0.4,0,0.7,0.1,1.1,0.1c0.2,0,0.4,0,0.6,0.1c0.1,0,0.3,0,0.4,0.1
	c0.1,0,0.2,0,0.2,0c0,0,0.1,0,0.1,0c0.1,0,0.2,0,0.4,0.1c0.2,0,0.4,0.1,0.6,0.1c0.1,0,0.3,0.1,0.4,0.1c0.2,0,0.5,0.1,0.7,0.1
	c0.8-0.8,1.7-1.7,2.5-2.6c0.1-0.1,0.2-0.2,0.3-0.3c0.4-0.4,0.8-0.8,1.3-0.7c0,0,0.1,0,0.1,0c0,0,0.1,0,0.1,0c0,0,0,0,0.1,0
	c0,0,0.1,0,0.1,0c0,0,0,0,0.1,0c0,0,0,0,0,0c0,0,0.1,0,0.1,0.1c0,0,0,0,0,0c0,0,0,0,0.1,0.1c0,0,0,0,0.1,0.1c0,0,0,0,0,0
	c0,0,0,0,0,0.1c0,0,0,0,0,0.1c0,0,0,0,0,0c0,0,0,0.1,0.1,0.1c0,0,0,0.1,0.1,0.1c0.2,0.3,0.3,0.7,0.3,1c0.1,0.4,0.1,0.8,0.2,1.2
	c0.2,1.4,0.3,2.8,0,5.3l1.7,7.7l1.2,5.6l0.2,0.9L29,25.1z"/>
<path class="st7" d="M7,14.7c-0.1,0-0.1-0.1-0.2-0.1c-0.1-0.6,0.7-1.2,1.7-2c1.3-1,2.8-2.1,2.1-3.1c-0.2-0.3-0.5-0.4-1-0.4
	c-0.5,0-1.1,0.3-1.4,0.8C8.3,10,8.2,10,8.1,10C8,9.9,8,9.8,8,9.7l0,0c0.4-0.6,1-0.9,1.6-1c0.5,0,1,0.2,1.2,0.6
	c0.4,0.6,0.3,1.2-0.3,1.9c-0.5,0.6-1.2,1.1-1.9,1.6c-0.8,0.6-1.7,1.2-1.6,1.6C7.2,14.6,7.1,14.7,7,14.7C7,14.7,7,14.7,7,14.7z"/>
<path class="st7" d="M12.1,19c-0.2,0-0.3,0-0.5,0c-1-0.1-2-0.5-3-1.4C8,18,7.1,18,6.5,17.6c-0.1-0.1-0.1-0.2-0.1-0.2
	c0-0.1,0.2-0.1,0.2-0.1c0.5,0.3,1.3,0.3,1.8-0.2c0.1-0.1,0.2-0.1,0.2,0c1,0.9,2,1.3,3,1.4c1.1,0.1,2.3-0.2,3.3-0.7
	c0.1-0.1,0.2,0,0.2,0.1c0.1,0.1,0,0.2-0.1,0.2c0,0,0,0,0,0C14.2,18.7,13.1,19,12.1,19z"/>
<path class="st7" d="M8.6,17.5c-0.1,0-0.1,0-0.2-0.1c-0.2-0.6-0.2-1.2-0.1-1.8c0-0.1,0.1-0.1,0.2-0.1s0.1,0.1,0.1,0.2
	c-0.1,0.5-0.1,1.1,0.1,1.6C8.8,17.3,8.7,17.4,8.6,17.5C8.6,17.5,8.6,17.5,8.6,17.5C8.6,17.5,8.6,17.5,8.6,17.5z"/>
<path class="st8" d="M10.9,15.1c-0.3,0.4-0.6,0.8-0.9,1.1c-0.2,0.2-0.5,0.4-0.8,0.5c-0.3,0.1-0.6,0.1-0.9,0.1
	c-0.4-0.1-0.8-0.5-1-0.9c-0.2-0.3-0.3-0.7-0.3-1.1v0C6.8,13.7,8,13.3,9,13.3c0.6,0,1.2,0.2,1.6,0.6c0,0,0.1,0.1,0.1,0.1c0,0,0,0,0,0
	C11.1,14.3,11.1,14.7,10.9,15.1z"/>
<path class="st9" d="M10.7,14c-0.8-0.1-1.6-0.4-2.3-0.2c-0.6,0.1-1.2,0.5-1.5,1v0C6.8,13.7,8,13.3,9,13.3c0.6,0,1.2,0.2,1.6,0.6
	C10.6,13.9,10.7,14,10.7,14C10.7,14,10.7,14,10.7,14z"/>
<path class="st10" d="M10.9,15.1c-0.3,0.4-0.6,0.8-0.9,1.1c-0.2,0.2-0.5,0.4-0.8,0.5c-0.3,0.1-0.6,0.1-0.9,0.1
	c-0.4-0.1-0.8-0.5-1-0.9C7.6,16,7.9,16,8.3,16c0.7-0.1,1.2-0.6,1.6-1.1c0.2-0.3,0.4-0.7,0.7-0.9c0,0,0,0,0,0c0,0,0.1,0.1,0.1,0.1
	C11.1,14.3,11.1,14.7,10.9,15.1z"/>
<path class="st7" d="M9.8,20.1c-0.2,0-0.5,0-0.7-0.1c-0.7-0.2-1.4-0.6-1.8-1.3c-0.1-0.1,0-0.2,0-0.2c0.1-0.1,0.2,0,0.2,0
	c0,0,0,0,0,0c0.7,1.2,2.3,1.5,3.5,0.8c0.1,0,0.2,0,0.2,0.1c0,0.1,0,0.2-0.1,0.2C10.8,20,10.3,20.1,9.8,20.1z"/>
<path class="st11" d="M23.6,7.9c0.1,0.1,0.3,0.1,0.4,0c0,0,0.1-0.1,0.1-0.2c0.1-0.7,0.2-1.4,0.2-2.2c0-0.4,0-0.7-0.1-1.1
	c-0.1-0.5-0.8-0.7-1-0.2C23.1,4.4,23,4.5,23,4.6c-0.2,0.3-0.4,0.5-0.7,0.7c-0.2,0.2-0.6,0.3-0.8,0.5c-0.5,0.5,0.7,0.9,1,1.2
	C22.9,7.2,23.3,7.5,23.6,7.9z"/>
<path class="st7" d="M25.6,9.6c-0.2-0.6-0.5-1.1-1-1.4l0,0C25.1,8.5,25.4,9,25.6,9.6L25.6,9.6z"/>
<path class="st7" d="M11.7,4.9L11.7,4.9c0.8-0.5,1.8-0.8,2.8-0.9l0,0C13.5,4.2,12.5,4.5,11.7,4.9z"/>
<path class="st12" d="M18.6,11.5c-0.4,0.7-1.1,1.1-1.9,1.3c-0.3,0.1-0.7,0.1-1,0c-0.2,0-0.5-0.1-0.7-0.3c-0.2-0.1-0.4-0.4-0.3-0.7
	c0.2-0.8,1-1.4,1.8-1.5c0.1,0,0.2,0,0.4,0C17.6,10.4,18.2,10.8,18.6,11.5z"/>
<path class="st13" d="M18.6,11.5c-0.4,0.7-1.1,1.1-1.9,1.3c-0.6-0.3-0.9-1.1-0.6-1.8c0.2-0.3,0.4-0.5,0.7-0.6
	C17.6,10.4,18.2,10.8,18.6,11.5z"/>
<path class="st14" d="M16.2,12.9c-0.2,0-0.3,0-0.5,0c-0.3-0.1-0.5-0.2-0.7-0.3c-0.2-0.2-0.4-0.5-0.3-0.7c0.2-0.8,1-1.5,1.9-1.6
	c0.9-0.1,1.7,0.4,2.1,1.2l0,0l0,0C18.1,12.3,17.2,12.9,16.2,12.9z M16.7,10.4c-0.1,0-0.1,0-0.2,0c-0.8,0.1-1.5,0.7-1.7,1.4
	c-0.1,0.2,0.1,0.4,0.3,0.6c0.2,0.1,0.4,0.2,0.7,0.3c1.1,0.2,2.2-0.3,2.8-1.2C18.1,10.8,17.4,10.4,16.7,10.4L16.7,10.4z"/>
<path class="st15" d="M17.1,10.8c0-0.1,0.1-0.2,0.2-0.2s0.2,0.1,0.2,0.2s-0.1,0.2-0.2,0.2S17.1,11,17.1,10.8z"/>
<path class="st12" d="M10.3,11.1c-0.1,0-0.1,0.1-0.2,0.1c-0.3,0.1-0.6,0.1-0.9,0.1c0,0,0,0-0.1,0c-0.4-0.1-0.8-0.3-1-0.6
	c-0.2-0.3-0.2-0.7,0-0.9C8.5,9.3,9.1,9,9.6,9c0.2,0,0.4,0,0.6,0.1c0.3,0.2,0.6,0.4,0.7,0.8C11,10.4,10.7,10.8,10.3,11.1z"/>
<path class="st13" d="M10.3,11.1c-0.1,0-0.1,0.1-0.2,0.1c-0.3,0.1-0.6,0.1-0.9,0.1c0,0,0,0-0.1,0C8.8,10.6,9,9.7,9.7,9.3
	c0.2-0.1,0.3-0.2,0.5-0.2c0.3,0.2,0.6,0.4,0.7,0.8C11,10.4,10.7,10.8,10.3,11.1z"/>
<path class="st14" d="M9.6,11.3c-0.1,0-0.2,0-0.3,0c-0.5-0.1-0.9-0.3-1.2-0.7c-0.2-0.3-0.2-0.7,0-1c0.4-0.4,1-0.7,1.5-0.7
	c0.6,0,1.3,0.4,1.4,1c0.1,0.5-0.2,1-0.6,1.2c-0.1,0-0.1,0.1-0.2,0.1l0,0C10,11.3,9.8,11.3,9.6,11.3z M9.6,9.1c-0.5,0-1,0.2-1.4,0.6
	C8,9.9,8,10.3,8.2,10.5c0.3,0.3,0.6,0.5,1,0.6c0.3,0,0.6,0,0.8-0.1l0,0c0.1,0,0.1-0.1,0.2-0.1c0.4-0.2,0.6-0.6,0.5-1
	C10.7,9.4,10.1,9.1,9.6,9.1L9.6,9.1z"/>
<path class="st15" d="M10,9.7c0-0.1,0.1-0.2,0.2-0.2s0.2,0.1,0.2,0.2s-0.1,0.2-0.2,0.2S10,9.8,10,9.7z"/>
<path class="st16" d="M9.7,8.3C9.4,8.2,9.1,8,9,7.7C9,7.4,9.2,7.1,9.5,7c0.3-0.1,0.6,0,0.9,0.1c0.4,0.1,0.7,0.4,1,0.6
	c0.1,0.1,0.2,0.2,0.2,0.3C11.6,8.6,10,8.4,9.7,8.3z"/>
<path class="st16" d="M17.2,9.7c0.3,0,0.7,0,1-0.1c0.3-0.2,0.5-0.5,0.4-0.9c-0.1-0.2-0.3-0.3-0.5-0.4c-0.2-0.1-0.4,0-0.6,0
	c-0.6,0-1.1,0.1-1.7,0.3c-0.5,0.1-0.8,0.6-0.2,0.8C16.1,9.7,16.7,9.7,17.2,9.7z"/>
</svg>
