<?xml version="1.0" encoding="utf-8"?>
<!-- Generator: Adobe Illustrator 26.2.1, SVG Export Plug-In . SVG Version: 6.00 Build 0)  -->
<svg version="1.1" id="Layer_1" xmlns="http://www.w3.org/2000/svg" xmlns:xlink="http://www.w3.org/1999/xlink" x="0px" y="0px"
	 viewBox="0 0 24 24" style="enable-background:new 0 0 24 24;" xml:space="preserve">
<style type="text/css">
	.st0{fill:#EFD35E;}
	.st1{fill:#E8E3DD;}
	.st2{fill:#C9C8C7;}
	.st3{fill:#9E9E9E;}
	.st4{fill:#2D2B29;}
	.st5{fill:#3F3E3C;}
	.st6{fill:none;}
	.st7{fill:#3D3B3A;}
	.st8{fill:#383331;}
	.st9{fill:#595453;}
	.st10{fill:#2B2727;}
	.st11{fill:#E2DBD9;}
	.st12{fill:#EDEAE6;}
	.st13{fill:#333130;}
	.st14{fill:#3A3837;}
	.st15{fill:#F2F0ED;}
	.st16{fill:#DBD7D2;}
</style>
<path class="st0" d="M23.7,12.3c0,2.3-0.7,4.6-2,6.5C19.6,21.9,16.1,24,12,24c-3.5,0-6.6-1.5-8.7-3.9c-1.9-2.1-2.9-4.9-2.9-7.7
	c0-4.7,2.8-8.8,6.9-10.7c0.5-0.2,1-0.4,1.5-0.5C8.8,1.1,8.9,1.1,9,1l0,0c3.2-0.9,6.6-0.3,9.3,1.5c0.3,0.2,0.6,0.4,0.8,0.6
	C21.9,5.2,23.7,8.6,23.7,12.3z"/>
<path class="st1" d="M19.7,14.5c-0.1,0.4-0.6,0.6-1,0.5c-0.2,0-0.3-0.1-0.5-0.1c-0.2-0.1-0.5-0.2-0.7-0.3c-1.9-0.9-4.1-0.6-6.1-0.8
	c-0.2,0-0.4,0-0.7-0.1h0c-1.5-0.2-3-0.6-4.4-1.1c-1-0.3-1.9-0.7-2.8-1C3.3,11.6,3.2,12.1,3,12c-0.2-1-0.2-1.4-0.1-1.8
	c0,0,0-0.1,0-0.1C3,9.5,3.2,8.9,4.3,7.3c0.2-0.3,0.4-0.6,0.7-0.9c0.1,0,0.1,0,0.2,0c0.5,0.1,0.9,0.3,1.4,0.6c0,0,0,0,0,0
	C6.7,7,6.8,7.1,7,7.3c0.2,0.2,0.5,0.3,0.7,0.5C7.8,7.9,7.9,8,8,8.1c0,0,0,0,0,0C8.7,8.6,9.4,9,10.2,9c1,0.1,1.9-0.4,2.8-0.8
	c0.9-0.4,1.9-0.7,2.9-0.4c1,0.4,1.6,1.5,2.1,2.5c0.3,0.7,0.6,1.3,0.9,2c0.2,0.4,0.4,0.9,0.6,1.3C19.7,13.9,19.8,14.2,19.7,14.5z"/>
<path class="st2" d="M21.7,18.8C19.6,21.9,16.1,24,12,24c-3.5,0-6.6-1.5-8.7-3.9l0.5-2.3l0.1-0.6c0,0,0,0,0,0c0,0,0,0,0,0
	c0-0.2,0.2-0.8,0.2-0.8c0.2-0.5,0.2-1,0.1-1.5c0,0,0,0,0-0.1c0,0,0,0,0-0.1v0c-0.2-0.7-0.6-1.3-0.9-2c0-0.1-0.1-0.1-0.1-0.2
	c0,0,0,0,0,0c0-0.1,0-0.1-0.1-0.2c0,0,0,0,0,0c0-0.1,0-0.1-0.1-0.2c0,0,0,0,0,0c0,0,0,0,0,0c0-0.1,0-0.1,0-0.2c0,0,0,0,0,0
	c0.1-0.4,0.3-0.8,0.6-1.1c0.4-0.4,1-0.7,1.5-0.8c0.2,0,0.5,0,0.7,0.1c0,0,0,0,0,0l0,0c0,0,0.1,0,0.1,0l0,0c0.3,0.1,0.5,0.1,0.8,0.2
	l0,0c0.3,0.1,0.7,0.2,1,0.4c0.2,0.1,0.4,0.2,0.5,0.2v0l0,0c0.6,0.3,1.2,0.6,1.9,0.9c1.4,0.7,3,1.3,4.5,1.1c0.9-0.1,1.8-0.5,2.8-0.6
	c0.1,0,0.3,0,0.4,0c0.3,0,0.7,0,1,0.1c0.5,0.1,1,0.2,1.4,0.4c0,0,0.1,0,0.1,0l0.9,4.2l0.1,0.7L21.7,18.8z"/>
<path class="st3" d="M12.5,18.4c-0.2,0.5-0.5,0.9-0.9,1.2c-0.6,0.6-1.2,1.2-1.9,1.7C9,21.7,8.2,22,7.3,21.9C6.6,21.9,6,21.5,5.5,21
	c-0.8-0.9-0.9-2.1-1.6-3c0-0.1-0.1-0.1-0.1-0.2l0.1-0.6c0,0,0,0,0,0c0-0.2,0.2-0.8,0.2-0.8c0.2-0.5,0.2-1,0.1-1.5c0,0,0,0,0-0.1
	c0,0,0-0.1,0-0.1c0,0,0,0,0,0v0c0.2,0.2,0.3,0.4,0.4,0.7c0.1,0.2,0.3,0.4,0.4,0.6c0.6,0.7,1.6,1.1,2.6,1.2c1.2,0.2,2.4,0,3.6-0.2
	c0.3,0,0.7-0.1,1,0.1C12.5,17.3,12.6,17.9,12.5,18.4z"/>
<path class="st4" d="M21.5,17.6c-0.4,0.1-1,0-1.4-0.3c-0.8-0.4-1.4-1.2-1.7-2c-0.1-0.1-0.1-0.3-0.1-0.4c-0.2-0.7-0.2-1.5-0.3-2.2
	c0-0.1,0-0.3,0-0.4c-0.1-0.8-0.2-1.5-0.6-2.2c-0.5-0.8-1.4-1.4-2.3-1.2c-0.8,0.1-1.3,0.8-1.9,1.3c-0.6,0.6-1.3,1.1-2.1,0.8
	c-1.1-0.3-1.5-1.9-2.6-2c-0.5,0-1,0.3-1.5,0.2c0,0-0.1,0-0.1,0C6.1,9,6,8,5.4,7.5C5.1,7.2,4.7,7.2,4.3,7.3c0.2-0.3,0.4-0.6,0.7-0.9
	C5,6.3,5.1,6.2,5.1,6.1c0.4-0.5,0.8-0.9,1.3-1.2C6.6,4.8,6.8,4.6,7,4.5c0,0,0,0,0,0C7.2,3.3,7.2,2,7.3,0.9c0-0.1,0-0.2,0-0.3
	c0-0.1,0-0.3,0.1-0.4c0,0,0.1-0.1,0.1-0.1C7.6,0,7.7,0,7.7,0h0c0,0,0,0,0.1,0c0,0,0.1,0,0.1,0C8,0.1,8.1,0.3,8.3,0.3
	c0.4,0.4,0.9,0.9,1.3,1.3C9.6,1.8,9.7,1.9,9.9,2c0.3,0.3,0.6,0.7,0.9,1.1c0.1,0,0.2,0,0.2,0s0.2,0,0.2,0l0.2,0c0.1,0,0.2,0,0.2,0
	c0.3,0,0.6,0.1,0.8,0.1c0.1,0,0.3,0,0.4,0.1c0.1,0,0.2,0,0.3,0c0.1,0,0.1,0,0.2,0c0,0,0.1,0,0.1,0c0.1,0,0.2,0,0.3,0
	c0.1,0,0.3,0,0.4,0.1c0.1,0,0.2,0,0.3,0.1c0.2,0,0.4,0.1,0.5,0.1c0.7-0.7,1.4-1.4,2.1-2.1c0.3-0.3,0.6-0.6,1-0.5c0,0,0,0,0.1,0
	c0,0,0,0,0.1,0c0,0,0,0,0.1,0c0,0,0,0,0.1,0c0,0,0,0,0.1,0c0,0,0,0,0,0c0,0,0.1,0,0.1,0.1c0,0,0,0,0,0c0,0,0,0,0,0c0,0,0,0,0,0
	c0,0,0,0,0,0c0,0,0,0,0,0c0,0,0,0,0,0c0,0,0,0,0,0c0,0,0,0,0,0.1c0,0,0,0,0,0.1C18.9,1.7,19,2,19,2.2c0.2,1.4,0.4,2.5,0.2,4.8
	l1.2,5.8l0.9,4.2L21.5,17.6z"/>
<path class="st5" d="M9.2,3.5C9.3,2.2,8.8,0.8,7.8,0c0,0,0.1,0,0.1,0C8,0.1,8.1,0.3,8.3,0.3C9.1,1.2,10,2.1,10.7,3
	C10.2,3.2,9.7,3.3,9.2,3.5z"/>
<path class="st5" d="M21.3,17c-0.7-2-1.1-6.8-3.3-10.3c-0.5-0.8-1-1.3-1.3-1.6c-0.1-0.1-0.2-0.2-0.2-0.2c0-0.2,0.4-0.2,0.5-0.1
	c0.2,0,0.4,0.1,0.6,0.1c0.2,0,0.4-0.2,0.5-0.5c0,0,0,0,0,0c0.1-0.2,0.1-0.5,0.1-0.7c0-0.9-0.1-1.8-0.3-2.7c0,0,0,0,0.1,0
	c0,0,0,0,0.1,0c0,0,0,0,0.1,0c0,0,0,0,0.1,0c0,0,0,0,0.1,0c0,0,0,0,0,0c0,0,0.1,0,0.1,0.1c0,0,0,0,0,0c0,0,0,0,0,0c0,0,0,0,0,0
	c0,0,0,0,0,0c0,0,0,0,0,0c0,0,0,0,0,0c0,0,0,0,0,0c0,0,0,0,0,0.1c0,0,0,0,0,0.1C18.9,1.7,19,2,19,2.2c0.2,1.4,0.4,2.5,0.2,4.8
	l1.2,5.8L21.3,17z"/>
<path class="st6" d="M21.7,18.8C19.6,21.9,16.1,24,12,24c-3.5,0-6.6-1.5-8.7-3.9l0.5-2.3l0.1-0.6c0,0,0,0,0,0c0,0,0,0,0,0
	c0-0.2,0.2-0.7,0.2-0.8c0.2-0.5,0.2-1,0.1-1.5c0,0,0,0,0-0.1c0,0,0,0,0-0.1v0c-0.2-0.7-0.6-1.3-0.9-2c0-0.1-0.1-0.1-0.1-0.2
	c0,0,0,0,0,0c0-0.1,0-0.1-0.1-0.2c0,0,0,0,0,0c0-0.1,0-0.1-0.1-0.2c0,0,0,0,0,0c0,0,0,0,0,0c0-0.1,0-0.1,0-0.2c0,0,0,0,0,0
	c0,0,0-0.1,0-0.1c0,0,0,0,0,0c0,0,0,0,0,0c0-0.1,0-0.2-0.1-0.3c0,0,0-0.1,0-0.1c0-0.1,0-0.2,0-0.3v0c0-0.4,0-0.8,0.1-1.2
	c0,0,0,0,0,0c0-0.2,0.1-0.4,0.2-0.6c0.2-0.5,0.5-1.2,1.1-2C4.5,7,4.7,6.7,4.9,6.5l0-0.1c0,0,0,0,0-0.1C5,6.3,5.1,6.2,5.1,6.1
	c0.4-0.5,0.8-0.9,1.3-1.2C6.6,4.8,6.8,4.6,7,4.5c0,0,0,0,0,0c0.1-0.9,0.1-1.9,0.2-2.8c0-0.3,0-0.5,0.1-0.8c0-0.1,0-0.2,0-0.3
	c0-0.1,0-0.3,0.1-0.4c0,0,0.1-0.1,0.1-0.1c0,0,0,0,0.1,0c0.1,0,0.1,0,0.2,0c0,0,0,0,0.1,0c0.1,0,0.3,0.1,0.4,0.2c0,0,0,0,0.1,0.1
	C8.5,0.6,8.7,0.8,9,1c0.1,0.1,0.3,0.3,0.4,0.4c0.1,0.1,0.1,0.1,0.2,0.2c0,0.1,0.1,0.1,0.1,0.2l0,0c0,0.1,0.1,0.1,0.1,0.2l0,0
	C9.9,2.1,10,2.1,10,2.2c0,0,0.1,0.1,0.1,0.1c0,0,0,0,0,0c0,0,0.1,0.1,0.1,0.1c0,0,0,0,0,0c0,0.1,0.1,0.1,0.1,0.2
	c0,0.1,0.1,0.1,0.1,0.2l0,0c0,0.1,0.1,0.1,0.1,0.2c0,0,0,0,0,0l0,0c0.1,0,0.2,0,0.2,0c0.1,0,0.2,0,0.2,0l0.2,0c0.1,0,0.2,0,0.2,0
	c0.3,0,0.6,0.1,0.8,0.1c0.1,0,0.3,0,0.4,0.1c0.1,0,0.2,0,0.3,0c0.1,0,0.1,0,0.2,0c0,0,0.1,0,0.1,0c0.1,0,0.2,0,0.3,0
	c0.1,0,0.3,0,0.4,0.1c0.1,0,0.2,0,0.3,0.1c0.2,0,0.4,0.1,0.5,0.1c0.6-0.6,1.3-1.3,1.9-1.9c0.1-0.1,0.1-0.1,0.2-0.2
	c0.3-0.3,0.6-0.6,1-0.5c0,0,0,0,0.1,0c0,0,0,0,0.1,0c0,0,0,0,0.1,0c0,0,0,0,0.1,0c0,0,0,0,0.1,0c0,0,0,0,0,0c0,0,0.1,0,0.1,0.1
	c0,0,0,0,0,0c0,0,0,0,0,0c0,0,0,0,0,0c0,0,0,0,0,0c0,0,0,0,0,0c0,0,0,0,0,0c0,0,0,0,0,0c0,0,0,0,0,0.1c0,0,0,0,0,0.1
	C18.9,1.7,19,2,19,2.2c0.1,0.3,0.1,0.6,0.1,0.9c0.2,1,0.2,2.1,0,3.9l1.2,5.8l0.9,4.2l0.1,0.7L21.7,18.8z"/>
<path class="st7" d="M5.2,11c-0.1,0-0.1,0-0.1-0.1C5,10.5,5.6,10,6.4,9.5c1-0.7,2.1-1.6,1.6-2.3C7.8,6.9,7.6,6.8,7.3,6.8
	c-0.4,0-0.8,0.2-1,0.6c0,0.1-0.1,0.1-0.2,0C6,7.4,6,7.3,6,7.3l0,0c0.3-0.4,0.7-0.7,1.2-0.7C7.6,6.6,8,6.7,8.2,7
	C8.5,7.4,8.4,7.9,8,8.4C7.6,8.9,7.1,9.3,6.6,9.7c-0.6,0.4-1.2,0.9-1.2,1.2C5.4,10.9,5.3,11,5.2,11C5.3,11,5.3,11,5.2,11z"/>
<path class="st7" d="M9.1,14.2c-0.1,0-0.2,0-0.4,0c-0.8-0.1-1.5-0.4-2.3-1.1c-0.4,0.3-1.1,0.4-1.5,0.1c-0.1,0-0.1-0.1,0-0.2
	C4.9,13,5,13,5,13c0.4,0.2,1,0.2,1.3-0.1c0,0,0.1,0,0.2,0c0.8,0.7,1.5,1,2.2,1.1c0.9,0.1,1.7-0.1,2.4-0.6c0.1,0,0.1,0,0.2,0
	c0,0.1,0,0.1,0,0.2c0,0,0,0,0,0C10.6,14,9.9,14.2,9.1,14.2z"/>
<path class="st7" d="M6.4,13.1c-0.1,0-0.1,0-0.1-0.1c-0.1-0.4-0.2-0.9-0.1-1.4c0-0.1,0.1-0.1,0.2-0.1c0.1,0,0.1,0.1,0.1,0.2
	c-0.1,0.4-0.1,0.8,0,1.2C6.6,13,6.5,13.1,6.4,13.1C6.5,13.1,6.5,13.1,6.4,13.1C6.4,13.1,6.4,13.1,6.4,13.1z"/>
<path class="st8" d="M8.1,11.3c-0.2,0.3-0.4,0.6-0.7,0.8c-0.2,0.2-0.4,0.3-0.6,0.4c-0.2,0.1-0.4,0.1-0.7,0.1
	c-0.3-0.1-0.6-0.4-0.8-0.7c-0.2-0.3-0.2-0.6-0.3-0.8v0c0-0.9,0.9-1.1,1.6-1.1c0.4,0,0.9,0.2,1.2,0.4c0,0,0.1,0,0.1,0.1c0,0,0,0,0,0
	C8.3,10.7,8.4,11,8.1,11.3z"/>
<path class="st9" d="M8,10.5c-0.6-0.1-1.2-0.3-1.7-0.2c-0.5,0.1-0.9,0.4-1.1,0.8v0c0-0.9,0.9-1.1,1.6-1.1C7.2,10,7.6,10.2,8,10.5
	C8,10.4,8,10.5,8,10.5C8,10.5,8,10.5,8,10.5z"/>
<path class="st10" d="M8.1,11.3c-0.2,0.3-0.4,0.6-0.7,0.8c-0.2,0.2-0.4,0.3-0.6,0.4c-0.2,0.1-0.4,0.1-0.7,0.1
	c-0.3-0.1-0.6-0.4-0.8-0.7C5.7,12,6,12,6.2,12c0.5-0.1,0.9-0.4,1.2-0.8c0.2-0.2,0.3-0.5,0.5-0.7c0,0,0,0,0,0c0,0,0.1,0,0.1,0.1
	C8.3,10.7,8.4,11,8.1,11.3z"/>
<path class="st7" d="M7.3,15.1c-0.2,0-0.3,0-0.5-0.1c-0.5-0.1-1-0.5-1.3-0.9c0-0.1,0-0.1,0-0.2c0.1,0,0.1,0,0.2,0c0,0,0,0,0,0
	c0.6,0.9,1.7,1.1,2.6,0.6c0.1,0,0.1,0,0.2,0c0,0.1,0,0.1,0,0.2C8.1,15,7.7,15.1,7.3,15.1z"/>
<path class="st11" d="M17.7,5.9C17.8,6,17.9,6,18,6c0,0,0.1-0.1,0.1-0.1c0.1-0.5,0.2-1.1,0.2-1.6c0-0.3,0-0.6-0.1-0.8
	c-0.1-0.4-0.6-0.5-0.8-0.2c-0.1,0.1-0.1,0.2-0.2,0.2c-0.2,0.2-0.3,0.4-0.5,0.5c-0.2,0.1-0.5,0.2-0.6,0.4c-0.3,0.4,0.5,0.7,0.7,0.9
	C17.2,5.4,17.5,5.7,17.7,5.9z"/>
<path class="st7" d="M19.2,7.2c-0.1-0.4-0.4-0.8-0.8-1.1l0,0C18.8,6.4,19.1,6.7,19.2,7.2L19.2,7.2z"/>
<path class="st7" d="M8.8,3.7L8.8,3.7c0.6-0.4,1.3-0.6,2.1-0.6l0,0C10.1,3.1,9.4,3.4,8.8,3.7z"/>
<path class="st12" d="M13.9,8.6c-0.3,0.5-0.8,0.8-1.4,0.9c-0.3,0-0.5,0.1-0.8,0c-0.2,0-0.4-0.1-0.5-0.2S11,9,11,8.8
	c0.2-0.6,0.7-1.1,1.4-1.1c0.1,0,0.2,0,0.3,0C13.2,7.8,13.7,8.1,13.9,8.6z"/>
<path class="st13" d="M13.9,8.6c-0.3,0.5-0.8,0.8-1.4,0.9c-0.5-0.3-0.7-0.9-0.4-1.3c0.1-0.2,0.3-0.4,0.5-0.5
	C13.2,7.8,13.7,8.1,13.9,8.6z"/>
<path class="st14" d="M12.1,9.6c-0.1,0-0.2,0-0.4,0c-0.2,0-0.4-0.1-0.5-0.2C11,9.3,10.9,9,11,8.8c0.2-0.6,0.8-1.1,1.4-1.2
	S13.7,8,14,8.6l0,0l0,0C13.6,9.3,12.9,9.6,12.1,9.6z M12.5,7.8c0,0-0.1,0-0.1,0c-0.6,0.1-1.1,0.5-1.3,1.1c0,0.2,0.1,0.3,0.2,0.4
	c0.1,0.1,0.3,0.2,0.5,0.2c0.8,0.1,1.7-0.2,2.1-0.9C13.6,8.1,13,7.8,12.5,7.8L12.5,7.8z"/>
<path class="st15" d="M12.8,8.1c0-0.1,0.1-0.2,0.2-0.2s0.2,0.1,0.2,0.2S13.1,8.3,13,8.3S12.8,8.2,12.8,8.1z"/>
<path class="st12" d="M7.8,8.3c-0.1,0-0.1,0.1-0.2,0.1C7.4,8.4,7.2,8.5,6.9,8.4c0,0,0,0,0,0C6.6,8.3,6.3,8.2,6.1,7.9
	C5.9,7.7,6,7.4,6.1,7.2c0.3-0.3,0.7-0.5,1.1-0.5c0.2,0,0.3,0,0.4,0.1C7.9,7,8.1,7.2,8.2,7.5C8.2,7.8,8.1,8.1,7.8,8.3z"/>
<path class="st13" d="M7.8,8.3c-0.1,0-0.1,0.1-0.2,0.1C7.4,8.4,7.2,8.5,6.9,8.4c0,0,0,0,0,0C6.6,7.9,6.8,7.3,7.3,7
	c0.1-0.1,0.3-0.1,0.4-0.1C7.9,7,8.1,7.2,8.2,7.5C8.2,7.8,8.1,8.1,7.8,8.3z"/>
<path class="st14" d="M7.2,8.5c-0.1,0-0.2,0-0.2,0C6.6,8.4,6.3,8.2,6.1,8c-0.2-0.2-0.2-0.6,0-0.8c0.3-0.3,0.7-0.5,1.1-0.5
	c0.4,0,0.9,0.3,1,0.8c0.1,0.4-0.1,0.7-0.4,0.9c-0.1,0-0.1,0.1-0.2,0.1l0,0C7.5,8.5,7.3,8.5,7.2,8.5z M7.2,6.8c-0.4,0-0.7,0.2-1,0.5
	C6,7.5,6,7.7,6.2,7.9C6.4,8.1,6.6,8.3,7,8.4c0.2,0,0.4,0,0.6-0.1l0,0c0.1,0,0.1,0,0.1-0.1C8,8.1,8.2,7.8,8.1,7.5
	C8,7,7.6,6.8,7.2,6.8L7.2,6.8z"/>
<path class="st15" d="M7.5,7.3c0-0.1,0.1-0.2,0.2-0.2s0.2,0.1,0.2,0.2S7.8,7.4,7.7,7.4S7.5,7.4,7.5,7.3z"/>
<path class="st16" d="M7.3,6.2C7.1,6.2,6.8,6,6.8,5.8c0-0.2,0.1-0.4,0.4-0.5c0.2-0.1,0.5,0,0.7,0.1C8,5.4,8.3,5.6,8.5,5.8
	C8.6,5.8,8.6,5.9,8.6,6C8.7,6.4,7.5,6.3,7.3,6.2z"/>
<path class="st16" d="M12.9,7.3c0.3,0,0.5,0,0.7-0.1C13.9,7,14.1,6.8,14,6.5c-0.1-0.1-0.2-0.2-0.3-0.3c-0.1,0-0.3,0-0.5,0
	c-0.4,0-0.8,0.1-1.3,0.2c-0.4,0.1-0.6,0.4-0.2,0.6C12.1,7.2,12.5,7.3,12.9,7.3z"/>
</svg>
